<svg viewBox="0 0 310.4 134.66" xmlns="http://www.w3.org/2000/svg"><path d="m297 53.57h-53.42v.1c-.23 0-.46 0-.69 0h-51.4a13.44 13.44 0 0 1 1-26.71h25.87a13.46 13.46 0 0 0 0-26.91l-58.66.45-70.7.2h-39.22a13.46 13.46 0 0 0 0 26.91h51.4a13.44 13.44 0 0 1 .59 26.49h-88.32a13.46 13.46 0 0 0 0 26.91h112.55v.09h10.18a13.45 13.45 0 0 1 2.57 26.65h-64.83a13.46 13.46 0 1 0 0 26.91l91.24-.22v.06l29.37-.13 33-.08v-.07l25.45-.11h10a13.46 13.46 0 1 0 0-26.91h-22.17a13.44 13.44 0 0 1 .57-26.66h1.51c.41 0 .81 0 1.21-.06h52.9a13.46 13.46 0 0 0 0-26.91z" fill="#fff"/></svg>