<svg xmlns="http://www.w3.org/2000/svg" viewBox="0 0 261.6 80.54"><defs><style>.cls-1{fill:#fff;}</style></defs><title>Asset 6</title><g id="Layer_2" data-name="Layer 2"><g id="Layer_1-2" data-name="Layer 1"><path class="cls-1" d="M13.45,80.54l155-.41,7.74,0v.1h71.93a13.46,13.46,0,0,0,0-26.91H177.3a13.45,13.45,0,0,1-1.58-26.44h33.46a13.31,13.31,0,0,0,3.11-.38h.38v-.1A13.45,13.45,0,0,0,209.18,0H47.46a13.46,13.46,0,0,0,0,26.91H72.08a13.44,13.44,0,0,1,.06,26.72H13.45a13.46,13.46,0,0,0,0,26.91Z"/></g></g></svg>