<svg xmlns="http://www.w3.org/2000/svg" xmlns:xlink="http://www.w3.org/1999/xlink" viewBox="0 0 455.01 358.57"><defs><style>.cls-1{fill:#fff;}.cls-2,.cls-3{fill:#0a1e24;}.cls-3{stroke:#0a1e24;stroke-miterlimit:10;}.cls-4{fill:url(#linear-gradient);}</style><linearGradient id="linear-gradient" x1="230.64" y1="161.08" x2="230.64" y2="358.57" gradientUnits="userSpaceOnUse"><stop offset="0" stop-color="#0a1e24"/><stop offset="1" stop-color="#fff" stop-opacity="0"/></linearGradient></defs><title>Asset 19</title><g id="Layer_2" data-name="Layer 2"><g id="Layer_1-2" data-name="Layer 1"><path class="cls-1" d="M453,129c-12.49-23.47-108.71-41.74-225.56-41.74-116.17,0-211.95,18.05-225.33,41.33"/><path class="cls-2" d="M337.23,80.72C325.35,33.71,280.21,0,228.48,0c-51.56,0-96.71,33.5-108.7,80.5C48.47,88.44,0,104,0,121.94,0,147.93,101.86,169,227.5,169S455,147.93,455,121.94C455,104.19,407.44,88.73,337.23,80.72Z"/><path class="cls-2" d="M315.52,78.3c-4.41-41.3-53.45-74-113.82-75"/><ellipse class="cls-3" cx="227.5" cy="161.94" rx="82.26" ry="17.01"/><path class="cls-2" d="M336.22,80.74a978.34,978.34,0,0,0-110.13-5.89,985.4,985.4,0,0,0-107.31,5.57"/><path class="cls-4" d="M126.93,358.57l52.75-194.29c32.18-4.56,65.67-4,100,.29L334.34,355"/></g></g></svg>