<svg xmlns="http://www.w3.org/2000/svg" viewBox="0 0 536.13 406.66"><defs><style>.cls-1{fill:#ffc96b;}.cls-2{fill:#0a1e24;}</style></defs><title>Asset 14</title><g id="Layer_2" data-name="Layer 2"><g id="Layer_1-2" data-name="Layer 1"><path class="cls-1" d="M368.07,23.77,296.75,94.35H244.51v124l-68.91,68.9H123.05L0,406.66H170.24S522.09,118.4,521.68,117.18,379.05,29,379.05,29Z"/><path class="cls-2" d="M368.07,23.77,296.75,94.35H244.51v124l-68.91,68.9H123.05L0,406.66H170.24S522.09,118.4,521.68,117.18,379.05,29,379.05,29Z"/><path class="cls-1" d="M510.26,2.23l-.2,54,26.07,27.9V406.66H83.45l87.86-95.73,17.17.07,78.81-78.22.09-22.91L308,169.54l.1-27.4,59.73-59.27.22-59.1L439,24,463.24,0S512.73-.22,510.26,2.23Z"/><path class="cls-2" d="M345.21,166.63V277.56l-35.07,35.07v44l-49.27,50.07H400.52V352.5L370.05,322V189.94S345.47,166.38,345.21,166.63Z"/><polygon class="cls-2" points="439.02 49.91 463.24 73.22 463.24 0.01 439.02 24.04 439.02 49.91"/></g></g></svg>