<svg xmlns="http://www.w3.org/2000/svg" viewBox="0 0 403.23 332.5"><defs><style>.cls-1{fill:#374e4d;}.cls-2{fill:#1a2c2e;}</style></defs><title>Asset 23</title><g id="Layer_2" data-name="Layer 2"><g id="Layer_1-2" data-name="Layer 1"><polyline class="cls-1" points="403.23 332.5 320.02 249.67 320.02 136.34 310.8 127.12 310.8 64.05 288.12 41.37 210.46 41.37 169.1 0 111.82 0 111.82 88.9 61.37 139.35 61.37 271.13 0 332.5"/><path class="cls-2" d="M272.21,211.14l-30.62,30.62V69.57l-31.13-28.2H271S272.84,210.51,272.21,211.14Z"/><path class="cls-2" d="M287.52,279.41V298l36.82,34.52h-55.9v-36S287.52,277.9,287.52,279.41Z"/><path class="cls-2" d="M181.6,144.87,204.69,168V332.5H114l65.1-65.14S179.84,143.12,181.6,144.87Z"/><polyline class="cls-2" points="105.3 266.36 40.99 332.5 0 332.5 61.37 271.13 61.37 139.35 103.8 96.97"/></g></g></svg>