<svg xmlns="http://www.w3.org/2000/svg" viewBox="0 0 540.11 406.9"><defs><style>.cls-1{fill:#ffc96b;}.cls-2{fill:#1a2c2e;}.cls-3{fill:#374e4d;}</style></defs><title>Asset 26</title><g id="Layer_2" data-name="Layer 2"><g id="Layer_1-2" data-name="Layer 1"><path class="cls-1" d="M372.06,23.77,300.74,94.35H248.5v124l-68.91,68.9H127L4,406.66H174.23S526.08,118.4,525.67,117.18,383,29,383,29Z"/><path class="cls-2" d="M370.71,23.77l-71.32,69.1H245.8l1.34,125.49-68.68,68-53.42.22L0,406.9l172.88-.24S524.73,118.4,524.33,117.18,381.69,29,381.69,29Z"/><path class="cls-3" d="M514.25,2.23l-.2,54,26.06,27.9V406.66l-452.78.12,88-95.85,17.18.07,78.81-78.22.09-22.91L312,169.54l.1-27.4,59.73-59.27.22-59.1L443,24,467.23,0S516.71-.22,514.25,2.23Z"/><path class="cls-2" d="M349.2,166.63V277.56l-35.07,35.07v44l-49.28,50.07H404.51V352.5L374,322V189.94S349.46,166.38,349.2,166.63Z"/><polygon class="cls-2" points="443.01 49.91 467.23 73.22 467.23 0.01 443.01 24.04 443.01 49.91"/></g></g></svg>