<?xml version="1.0" encoding="utf-8"?>
<!-- Generator: Adobe Illustrator 23.0.3, SVG Export Plug-In . SVG Version: 6.00 Build 0)  -->
<svg version="1.1" id="Layer_1" xmlns="http://www.w3.org/2000/svg" xmlns:xlink="http://www.w3.org/1999/xlink" x="0px" y="0px"
	 viewBox="0 0 1578.6 810.2" style="enable-background:new 0 0 1578.6 810.2;" xml:space="preserve">
<style type="text/css">
	.st0{fill:#FFC96B;}
</style>
<title>Asset 9</title>
<g>
	<g id="Layer_1-2">
		<circle class="st0" cx="505.5" cy="95.3" r="2.8"/>
		<circle class="st0" cx="441.7" cy="23" r="1.4"/>
		<circle class="st0" cx="406.5" cy="70.1" r="1.4"/>
		<circle class="st0" cx="144.2" cy="20.2" r="2.8"/>
		<circle class="st0" cx="48" cy="14.1" r="1.4"/>
		<circle class="st0" cx="136.3" cy="90.3" r="1.4"/>
		<circle class="st0" cx="296.5" cy="156.6" r="1.4"/>
		<circle class="st0" cx="494.5" cy="453.9" r="2.8"/>
		<circle class="st0" cx="446.6" cy="198.1" r="1.4"/>
		<circle class="st0" cx="386.4" cy="195.9" r="3"/>
		<circle class="st0" cx="459.3" cy="340.9" r="1.4"/>
		<circle class="st0" cx="723.8" cy="285.8" r="1.4"/>
		<circle class="st0" cx="755.2" cy="177.7" r="1.4"/>
		<circle class="st0" cx="683" cy="159.9" r="1.4"/>
		<circle class="st0" cx="949.3" cy="134.5" r="2.8"/>
		<circle class="st0" cx="710.5" cy="65.8" r="1.4"/>
		<circle class="st0" cx="905.3" cy="79.3" r="1.4"/>
		<circle class="st0" cx="710.5" cy="64.8" r="1.4"/>
		<circle class="st0" cx="905.3" cy="78.3" r="1.4"/>
		<circle class="st0" cx="155.1" cy="228.8" r="2.8"/>
		<circle class="st0" cx="259" cy="365.6" r="1.4"/>
		<circle class="st0" cx="319.2" cy="367.7" r="3"/>
		<circle class="st0" cx="397.9" cy="470.1" r="1.4"/>
		
			<ellipse transform="matrix(0.9985 -5.530030e-02 5.530030e-02 0.9985 -14.6854 3.8315)" class="st0" cx="61.9" cy="267.3" rx="2.8" ry="2.8"/>
		<circle class="st0" cx="126.2" cy="355.2" r="1.4"/>
		<circle class="st0" cx="617.9" cy="355.1" r="1.4"/>
		<circle class="st0" cx="690.2" cy="372.9" r="1.4"/>
		<circle class="st0" cx="1.4" cy="101.1" r="1.4"/>
		<circle class="st0" cx="1073.1" cy="571.9" r="2.8"/>
		<circle class="st0" cx="1136.9" cy="644.3" r="1.4"/>
		<circle class="st0" cx="1197.2" cy="646.4" r="3"/>
		<circle class="st0" cx="1434.4" cy="647" r="2.8"/>
		<circle class="st0" cx="1530.7" cy="653.1" r="1.4"/>
		<circle class="st0" cx="1442.4" cy="576.9" r="1.4"/>
		<circle class="st0" cx="1232.1" cy="450.6" r="1.4"/>
		<circle class="st0" cx="1084.2" cy="213.3" r="2.8"/>
		<circle class="st0" cx="1082" cy="409.1" r="1.4"/>
		<circle class="st0" cx="1142.3" cy="411.3" r="3"/>
		<circle class="st0" cx="951.1" cy="387.4" r="2.8"/>
		<circle class="st0" cx="854.8" cy="381.4" r="1.4"/>
		<circle class="st0" cx="823.4" cy="489.5" r="1.4"/>
		<circle class="st0" cx="895.7" cy="507.3" r="1.4"/>
		<circle class="st0" cx="629.4" cy="532.7" r="2.8"/>
		<circle class="st0" cx="868.1" cy="601.4" r="1.4"/>
		<circle class="st0" cx="673.3" cy="587.9" r="1.4"/>
		<circle class="st0" cx="737" cy="549.4" r="1.4"/>
		<circle class="st0" cx="895.7" cy="508.3" r="1.4"/>
		<circle class="st0" cx="629.4" cy="533.7" r="2.8"/>
		<circle class="st0" cx="868.1" cy="602.4" r="1.4"/>
		<circle class="st0" cx="673.3" cy="588.9" r="1.4"/>
		<circle class="st0" cx="737" cy="550.4" r="1.4"/>
		<circle class="st0" cx="895.7" cy="509.3" r="1.4"/>
		<circle class="st0" cx="629.4" cy="534.7" r="2.8"/>
		<circle class="st0" cx="868.1" cy="603.4" r="1.4"/>
		<circle class="st0" cx="673.3" cy="589.9" r="1.4"/>
		<circle class="st0" cx="737" cy="551.4" r="1.4"/>
		<circle class="st0" cx="1050.1" cy="690.2" r="1.4"/>
		<circle class="st0" cx="783.7" cy="715.6" r="2.8"/>
		<circle class="st0" cx="1022.5" cy="784.4" r="1.4"/>
		<circle class="st0" cx="827.7" cy="770.9" r="1.4"/>
		<circle class="st0" cx="891.4" cy="732.3" r="1.4"/>
		<circle class="st0" cx="1423.6" cy="438.4" r="2.8"/>
		<circle class="st0" cx="1319.7" cy="301.6" r="1.4"/>
		<circle class="st0" cx="1259.4" cy="299.5" r="3"/>
		<circle class="st0" cx="1516.8" cy="399.9" r="2.8"/>
		<circle class="st0" cx="1524.7" cy="329.8" r="1.4"/>
		<circle class="st0" cx="1452.4" cy="312" r="1.4"/>
		<circle class="st0" cx="1016.2" cy="185.5" r="1.4"/>
		<circle class="st0" cx="960.7" cy="312.1" r="1.4"/>
		<circle class="st0" cx="888.4" cy="294.4" r="1.4"/>
		<circle class="st0" cx="1577.3" cy="566.1" r="1.4"/>
		<circle class="st0" cx="1505" cy="548.3" r="1.4"/>
		<circle class="st0" cx="1086.6" cy="13.6" r="2.8"/>
		<circle class="st0" cx="1080.6" cy="109.9" r="1.4"/>
		<circle class="st0" cx="1156.8" cy="21.6" r="1.4"/>
		<circle class="st0" cx="1295.2" cy="2.8" r="2.8"/>
		<circle class="st0" cx="1333.7" cy="96" r="2.8"/>
		<circle class="st0" cx="1403.9" cy="103.9" r="1.4"/>
		<circle class="st0" cx="1421.6" cy="31.7" r="1.4"/>
		<circle class="st0" cx="1167.6" cy="156.5" r="1.4"/>
		<circle class="st0" cx="1185.3" cy="84.2" r="1.4"/>
		<circle class="st0" cx="39.6" cy="471.6" r="2.8"/>
		<circle class="st0" cx="33.6" cy="598.9" r="1.4"/>
		<circle class="st0" cx="112.6" cy="748.9" r="1.4"/>
		<circle class="st0" cx="1172.6" cy="808.9" r="1.4"/>
		<circle class="st0" cx="1362.6" cy="798.9" r="1.4"/>
		<circle class="st0" cx="109.8" cy="479.6" r="1.4"/>
		<circle class="st0" cx="248.2" cy="460.8" r="2.8"/>
		<circle class="st0" cx="286.7" cy="554" r="2.8"/>
		<circle class="st0" cx="356.9" cy="562" r="1.4"/>
		<circle class="st0" cx="120.6" cy="614.5" r="1.4"/>
		<circle class="st0" cx="303.6" cy="632.6" r="2.8"/>
		<circle class="st0" cx="297.6" cy="728.9" r="1.4"/>
		
			<ellipse transform="matrix(0.9239 -0.3827 0.3827 0.9239 -198.9481 243.3585)" class="st0" cx="512.2" cy="621.8" rx="2.8" ry="2.8"/>
		<circle class="st0" cx="550.7" cy="715" r="2.8"/>
		<circle class="st0" cx="620.9" cy="723" r="1.4"/>
		<circle class="st0" cx="384.5" cy="775.5" r="1.4"/>
		<circle class="st0" cx="402.3" cy="703.2" r="1.4"/>
	</g>
</g>
</svg>
