<svg xmlns="http://www.w3.org/2000/svg" viewBox="0 0 235.1 93.07"><defs><style>.cls-1{fill:#fff;}.cls-1,.cls-2{stroke:#0a1e24;stroke-miterlimit:10;}.cls-2{fill:#0a1e24;}</style></defs><title>Asset 17</title><g id="Layer_2" data-name="Layer 2"><g id="Layer_1-2" data-name="Layer 1"><path class="cls-1" d="M233.55,66.86c-6.43-12.08-55.94-21.47-116.06-21.47-59.76,0-109,9.28-115.93,21.26"/><path class="cls-1" d="M174,42C167.9,17.84,144.67.5,118.06.5S68.3,17.73,62.13,41.92C25.44,46,.5,54,.5,63.24c0,13.37,52.41,24.21,117.05,24.21S234.6,76.61,234.6,63.24C234.6,54.11,210.13,46.15,174,42Z"/><path class="cls-1" d="M162.84,40.79C160.57,19.53,135.33,2.71,104.28,2.2"/><ellipse class="cls-2" cx="117.55" cy="83.82" rx="42.32" ry="8.75"/><path class="cls-1" d="M173.49,42a503.27,503.27,0,0,0-56.66-3,505.67,505.67,0,0,0-55.21,2.87"/></g></g></svg>